<svg viewBox="-0.5 -0.5 181 61" height="61px" width="181px" version="1.1" xmlns:xlink="http://www.w3.org/1999/xlink" style="background: transparent; background-color: transparent; color-scheme: light dark;" xmlns="http://www.w3.org/2000/svg"><defs></defs><g><g data-cell-id="0"><g data-cell-id="1"><g data-cell-id="0x_9KyVbHYaVxSeoc80N-2"><g><rect stroke="none" fill="none" height="30" width="60" y="0" x="0"></rect></g><g><g transform="translate(-0.5 -0.5)"><switch><text text-anchor="middle" font-size="12px" font-family="&quot;Helvetica&quot;" fill="light-dark(#000000, #ffffff)" y="19" x="30">A</text></switch></g></g></g><g data-cell-id="0x_9KyVbHYaVxSeoc80N-3"><g><rect stroke="none" fill="none" height="30" width="60" y="15" x="121"></rect></g><g><g transform="translate(-0.5 -0.5)"><switch><text text-anchor="middle" font-size="12px" font-family="&quot;Helvetica&quot;" fill="light-dark(#000000, #ffffff)" y="34" x="151">Y</text></switch></g></g></g><g data-cell-id="QmaxzBaVvxl72MjBW_Zl-2"><g><path style="stroke: light-dark(rgb(0, 0, 0), rgb(255, 255, 255));" stroke-miterlimit="10" stroke="#000000" fill="none" d="M 121 30 L 141 30 M 41 15 L 61 15 M 41 45 L 61 45"></path><path style="stroke: light-dark(rgb(0, 0, 0), rgb(255, 255, 255));" stroke-miterlimit="10" stroke="#000000" fill="none" d="M 61 0 L 91 0 C 107.57 0 121 13.43 121 30 C 121 46.57 107.57 60 91 60 L 61 60 Z"></path></g></g><g data-cell-id="QmaxzBaVvxl72MjBW_Zl-3"><g><rect stroke="none" fill="none" height="30" width="60" y="30" x="0"></rect></g><g><g transform="translate(-0.5 -0.5)"><switch><text text-anchor="middle" font-size="12px" font-family="&quot;Helvetica&quot;" fill="light-dark(#000000, #ffffff)" y="49" x="30">B</text></switch></g></g></g></g></g></g><switch><g></g><a xlink:href="https://www.drawio.com/doc/faq/svg-export-text-problems" transform="translate(0,-5)"><text y="100%" x="50%" font-size="10px" text-anchor="middle">Text is not SVG - cannot display</text></a></switch></svg>