<svg viewBox="-0.5 -0.5 465 221" height="221px" width="465px" version="1.1" xmlns:xlink="http://www.w3.org/1999/xlink" style="background: transparent; background-color: transparent; color-scheme: light dark;" xmlns="http://www.w3.org/2000/svg"><defs></defs><g><g data-cell-id="0"><g data-cell-id="1"><g data-cell-id="zThHwDo1M0iiWrI_gxra-3"><g><rect style="stroke: light-dark(rgb(0, 0, 0), rgb(255, 255, 255));" stroke="#000000" fill="none" height="80" width="80" y="60" x="152"></rect></g></g><g data-cell-id="zThHwDo1M0iiWrI_gxra-6"><g><rect style="stroke: light-dark(rgb(0, 0, 0), rgb(255, 255, 255));" stroke="#000000" fill="none" height="80" width="80" y="60" x="72"></rect></g></g><g data-cell-id="zThHwDo1M0iiWrI_gxra-7"><g><rect style="stroke: light-dark(rgb(0, 0, 0), rgb(255, 255, 255));" stroke="#000000" fill="none" height="80" width="80" y="140" x="152"></rect></g></g><g data-cell-id="zThHwDo1M0iiWrI_gxra-10"><g><rect style="stroke: light-dark(rgb(0, 0, 0), rgb(255, 255, 255));" stroke="#000000" fill="none" height="80" width="80" y="140" x="72"></rect></g></g><g data-cell-id="zThHwDo1M0iiWrI_gxra-11"><g><rect stroke="none" fill="none" height="30" width="60" y="85" x="82"></rect></g><g><g transform="translate(-0.5 -0.5)"><switch><text text-anchor="middle" font-size="12px" font-family="&quot;Helvetica&quot;" fill="light-dark(#000000, #ffffff)" y="104" x="112">1</text></switch></g></g></g><g data-cell-id="zThHwDo1M0iiWrI_gxra-12"><g><rect stroke="none" fill="none" height="30" width="60" y="165" x="82"></rect></g><g><g transform="translate(-0.5 -0.5)"><switch><text text-anchor="middle" font-size="12px" font-family="&quot;Helvetica&quot;" fill="light-dark(#000000, #ffffff)" y="184" x="112">1</text></switch></g></g></g><g data-cell-id="zThHwDo1M0iiWrI_gxra-13"><g><rect stroke="none" fill="none" height="30" width="60" y="165" x="162"></rect></g><g><g transform="translate(-0.5 -0.5)"><switch><text text-anchor="middle" font-size="12px" font-family="&quot;Helvetica&quot;" fill="light-dark(#000000, #ffffff)" y="184" x="192">0</text></switch></g></g></g><g data-cell-id="zThHwDo1M0iiWrI_gxra-14"><g><rect stroke="none" fill="none" height="30" width="60" y="85" x="162"></rect></g><g><g transform="translate(-0.5 -0.5)"><switch><text text-anchor="middle" font-size="12px" font-family="&quot;Helvetica&quot;" fill="light-dark(#000000, #ffffff)" y="104" x="192">0</text></switch></g></g></g><g data-cell-id="zThHwDo1M0iiWrI_gxra-19"><g><rect style="stroke: light-dark(rgb(0, 0, 0), rgb(255, 255, 255));" stroke="#000000" fill="none" height="80" width="80" y="60" x="232"></rect></g></g><g data-cell-id="zThHwDo1M0iiWrI_gxra-20"><g><rect style="stroke: light-dark(rgb(0, 0, 0), rgb(255, 255, 255));" stroke="#000000" fill="none" height="80" width="80" y="140" x="232"></rect></g></g><g data-cell-id="zThHwDo1M0iiWrI_gxra-21"><g><rect stroke="none" fill="none" height="30" width="60" y="165" x="242"></rect></g><g><g transform="translate(-0.5 -0.5)"><switch><text text-anchor="middle" font-size="12px" font-family="&quot;Helvetica&quot;" fill="light-dark(#000000, #ffffff)" y="184" x="272">0</text></switch></g></g></g><g data-cell-id="zThHwDo1M0iiWrI_gxra-22"><g><rect stroke="none" fill="none" height="30" width="60" y="85" x="242"></rect></g><g><g transform="translate(-0.5 -0.5)"><switch><text text-anchor="middle" font-size="12px" font-family="&quot;Helvetica&quot;" fill="light-dark(#000000, #ffffff)" y="104" x="272">1</text></switch></g></g></g><g data-cell-id="zThHwDo1M0iiWrI_gxra-23"><g><rect style="stroke: light-dark(rgb(0, 0, 0), rgb(255, 255, 255));" stroke="#000000" fill="none" height="80" width="80" y="60" x="312"></rect></g></g><g data-cell-id="zThHwDo1M0iiWrI_gxra-24"><g><rect style="stroke: light-dark(rgb(0, 0, 0), rgb(255, 255, 255));" stroke="#000000" fill="none" height="80" width="80" y="140" x="312"></rect></g></g><g data-cell-id="zThHwDo1M0iiWrI_gxra-25"><g><rect stroke="none" fill="none" height="30" width="60" y="165" x="322"></rect></g><g><g transform="translate(-0.5 -0.5)"><switch><text text-anchor="middle" font-size="12px" font-family="&quot;Helvetica&quot;" fill="light-dark(#000000, #ffffff)" y="184" x="352">1</text></switch></g></g></g><g data-cell-id="zThHwDo1M0iiWrI_gxra-26"><g><rect stroke="none" fill="none" height="30" width="60" y="85" x="322"></rect></g><g><g transform="translate(-0.5 -0.5)"><switch><text text-anchor="middle" font-size="12px" font-family="&quot;Helvetica&quot;" fill="light-dark(#000000, #ffffff)" y="104" x="352">1</text></switch></g></g></g><g data-cell-id="zThHwDo1M0iiWrI_gxra-27"><g><rect stroke="none" fill="none" height="30" width="60" y="30" x="82"></rect></g><g><g transform="translate(-0.5 -0.5)"><switch><text text-anchor="middle" font-size="12px" font-family="&quot;Helvetica&quot;" fill="light-dark(#000000, #ffffff)" y="49" x="112">00</text></switch></g></g></g><g data-cell-id="zThHwDo1M0iiWrI_gxra-28"><g><rect stroke="none" fill="none" height="30" width="60" y="30" x="162"></rect></g><g><g transform="translate(-0.5 -0.5)"><switch><text text-anchor="middle" font-size="12px" font-family="&quot;Helvetica&quot;" fill="light-dark(#000000, #ffffff)" y="49" x="192">01</text></switch></g></g></g><g data-cell-id="zThHwDo1M0iiWrI_gxra-29"><g><rect stroke="none" fill="none" height="30" width="60" y="30" x="242"></rect></g><g><g transform="translate(-0.5 -0.5)"><switch><text text-anchor="middle" font-size="12px" font-family="&quot;Helvetica&quot;" fill="light-dark(#000000, #ffffff)" y="49" x="272">11</text></switch></g></g></g><g data-cell-id="zThHwDo1M0iiWrI_gxra-30"><g><rect stroke="none" fill="none" height="30" width="60" y="30" x="322"></rect></g><g><g transform="translate(-0.5 -0.5)"><switch><text text-anchor="middle" font-size="12px" font-family="&quot;Helvetica&quot;" fill="light-dark(#000000, #ffffff)" y="49" x="352">10</text></switch></g></g></g><g data-cell-id="zThHwDo1M0iiWrI_gxra-31"><g><rect stroke="none" fill="none" height="30" width="60" y="85" x="22"></rect></g><g><g transform="translate(-0.5 -0.5)"><switch><text text-anchor="middle" font-size="12px" font-family="&quot;Helvetica&quot;" fill="light-dark(#000000, #ffffff)" y="104" x="52">0</text></switch></g></g></g><g data-cell-id="zThHwDo1M0iiWrI_gxra-32"><g><rect stroke="none" fill="none" height="30" width="60" y="165" x="22"></rect></g><g><g transform="translate(-0.5 -0.5)"><switch><text text-anchor="middle" font-size="12px" font-family="&quot;Helvetica&quot;" fill="light-dark(#000000, #ffffff)" y="184" x="52">1</text></switch></g></g></g><g data-cell-id="zThHwDo1M0iiWrI_gxra-33"><g><path style="stroke: light-dark(rgb(0, 0, 0), rgb(255, 255, 255));" stroke-miterlimit="10" stroke="#000000" fill="none" d="M 32 20 L 72 60"></path></g></g><g data-cell-id="zThHwDo1M0iiWrI_gxra-34"><g><rect stroke="none" fill="none" height="30" width="60" y="0" x="2"></rect></g><g><g transform="translate(-0.5 -0.5)"><switch><text text-anchor="middle" font-size="12px" font-family="&quot;Helvetica&quot;" fill="light-dark(#000000, #ffffff)" y="19" x="32">Y</text></switch></g></g></g><g data-cell-id="zThHwDo1M0iiWrI_gxra-35"><g><rect stroke="none" fill="none" height="30" width="60" y="10" x="32"></rect></g><g><g transform="translate(-0.5 -0.5)"><switch><text text-anchor="middle" font-size="12px" font-family="&quot;Helvetica&quot;" fill="light-dark(#000000, #ffffff)" y="29" x="62">AB</text></switch></g></g></g><g data-cell-id="zThHwDo1M0iiWrI_gxra-36"><g><rect stroke="none" fill="none" height="30" width="60" y="40" x="12"></rect></g><g><g transform="translate(-0.5 -0.5)"><switch><text text-anchor="middle" font-size="12px" font-family="&quot;Helvetica&quot;" fill="light-dark(#000000, #ffffff)" y="59" x="42">C</text></switch></g></g></g><g data-cell-id="sgIT9kEAKyNvIqSxlnJ6-1"><g><ellipse style="stroke: rgb(51, 51, 255);" stroke-width="2" stroke="#3333ff" fill="none" ry="40" rx="60" cy="100" cx="312"></ellipse></g></g><g data-cell-id="sgIT9kEAKyNvIqSxlnJ6-2"><g><path style="stroke: rgb(153, 51, 255);" transform="rotate(90,388.25,135)" stroke-miterlimit="10" stroke-width="2" stroke="#9933ff" fill="none" d="M 454.41 131.06 C 455.69 158.57 443.54 184.66 422.77 199.01 C 402 213.37 375.95 213.68 354.92 199.82 C 333.89 185.96 321.26 160.17 322.03 132.63"></path></g></g><g data-cell-id="sgIT9kEAKyNvIqSxlnJ6-4"><g><path style="stroke: rgb(153, 51, 255);" transform="rotate(-90,75.75,135)" stroke-miterlimit="10" stroke-width="2" stroke="#9933ff" fill="none" d="M 141.91 131.06 C 143.19 158.57 131.04 184.66 110.27 199.01 C 89.5 213.37 63.45 213.68 42.42 199.82 C 21.39 185.96 8.76 160.17 9.53 132.63"></path></g></g></g></g></g><switch><g></g><a xlink:href="https://www.drawio.com/doc/faq/svg-export-text-problems" transform="translate(0,-5)"><text y="100%" x="50%" font-size="10px" text-anchor="middle">Text is not SVG - cannot display</text></a></switch></svg>