<svg viewBox="-0.5 -0.5 285 271" height="271px" width="285px" version="1.1" xmlns:xlink="http://www.w3.org/1999/xlink" style="background: transparent; background-color: transparent; color-scheme: light dark;" xmlns="http://www.w3.org/2000/svg"><defs></defs><g><g data-cell-id="0"><g data-cell-id="1"><g data-cell-id="H3RwQRTfPqugfffG4RGO-1"><g><path style="stroke: light-dark(rgb(0, 0, 0), rgb(255, 255, 255));" stroke-miterlimit="10" stroke="#000000" fill="none" d="M 45 90 L 65 90 M 125 90 L 145 90"></path><path style="stroke: light-dark(rgb(0, 0, 0), rgb(255, 255, 255));" stroke-miterlimit="10" stroke="#000000" fill="none" d="M 65 60 L 125 90 L 65 120 Z"></path></g></g><g data-cell-id="H3RwQRTfPqugfffG4RGO-2"><g><path style="stroke: light-dark(rgb(0, 0, 0), rgb(255, 255, 255));" stroke-miterlimit="10" stroke="#000000" fill="none" d="M 45 240 L 65 240 M 125 240 L 145 240"></path><path style="stroke: light-dark(rgb(0, 0, 0), rgb(255, 255, 255));" stroke-miterlimit="10" stroke="#000000" fill="none" d="M 65 210 L 125 240 L 65 270 Z"></path></g></g><g data-cell-id="H3RwQRTfPqugfffG4RGO-3"><g><path style="stroke: light-dark(rgb(0, 0, 0), rgb(255, 255, 255));" stroke-miterlimit="10" stroke="#000000" fill="none" d="M 93.31 75 L 92 73.02"></path></g></g><g data-cell-id="H3RwQRTfPqugfffG4RGO-4"><g><path style="stroke: light-dark(rgb(0, 0, 0), rgb(255, 255, 255));" stroke-miterlimit="10" stroke="#000000" fill="none" d="M 91 222 L 92 105"></path></g></g><g data-cell-id="H3RwQRTfPqugfffG4RGO-7"><g><path style="stroke: light-dark(rgb(0, 0, 0), rgb(255, 255, 255));" stroke-miterlimit="10" stroke="#000000" fill="none" d="M 90 30 L 89.7 67.17"></path></g></g><g data-cell-id="H3RwQRTfPqugfffG4RGO-8"><g><ellipse style="stroke: light-dark(rgb(0, 0, 0), rgb(255, 255, 255));" stroke="#000000" fill="none" ry="4" rx="4" cy="70" cx="90"></ellipse></g></g><g data-cell-id="H3RwQRTfPqugfffG4RGO-9"><g><rect transform="rotate(-180,192.5,165)" stroke="none" fill="none" height="150" width="95" y="90" x="145"></rect><path style="stroke: light-dark(rgb(0, 0, 0), rgb(255, 255, 255));" transform="rotate(-180,192.5,165)" stroke-miterlimit="10" stroke="#000000" fill="none" d="M 240 90 L 192.5 90 L 192.5 240 L 240 240"></path><path style="stroke: light-dark(rgb(0, 0, 0), rgb(255, 255, 255));" transform="rotate(-180,192.5,165)" stroke-miterlimit="10" stroke="#000000" fill="none" d="M 145 165 L 192.5 165"></path></g></g><g data-cell-id="H3RwQRTfPqugfffG4RGO-10"><g><rect stroke="none" fill="none" height="30" width="60" y="0" x="60"></rect></g><g><g transform="translate(-0.5 -0.5)"><switch><text text-anchor="middle" font-size="12px" font-family="&quot;Helvetica&quot;" fill="light-dark(#000000, #ffffff)" y="19" x="90">S</text></switch></g></g></g><g data-cell-id="H3RwQRTfPqugfffG4RGO-11"><g><rect stroke="none" fill="none" height="30" width="60" y="150" x="225"></rect></g><g><g transform="translate(-0.5 -0.5)"><switch><text text-anchor="middle" font-size="12px" font-family="&quot;Helvetica&quot;" fill="light-dark(#000000, #ffffff)" y="169" x="255">Y</text></switch></g></g></g><g data-cell-id="H3RwQRTfPqugfffG4RGO-12"><g><rect stroke="none" fill="none" height="30" width="60" y="75" x="0"></rect></g><g><g transform="translate(-0.5 -0.5)"><switch><text text-anchor="middle" font-size="12px" font-family="&quot;Helvetica&quot;" fill="light-dark(#000000, #ffffff)" y="94" x="30">D0</text></switch></g></g></g><g data-cell-id="H3RwQRTfPqugfffG4RGO-13"><g><rect stroke="none" fill="none" height="30" width="60" y="225" x="0"></rect></g><g><g transform="translate(-0.5 -0.5)"><switch><text text-anchor="middle" font-size="12px" font-family="&quot;Helvetica&quot;" fill="light-dark(#000000, #ffffff)" y="244" x="30">D1</text></switch></g></g></g></g></g></g><switch><g></g><a xlink:href="https://www.drawio.com/doc/faq/svg-export-text-problems" transform="translate(0,-5)"><text y="100%" x="50%" font-size="10px" text-anchor="middle">Text is not SVG - cannot display</text></a></switch></svg>