<svg viewBox="-0.5 -0.5 291 371" height="371px" width="291px" version="1.1" xmlns:xlink="http://www.w3.org/1999/xlink" style="background: transparent; background-color: transparent; color-scheme: light dark;" xmlns="http://www.w3.org/2000/svg"><defs></defs><g><g data-cell-id="0"><g data-cell-id="1"><g data-cell-id="Y9nm8DiQlRWT1U7rumLC-1"><g><path style="stroke: light-dark(rgb(0, 0, 0), rgb(255, 255, 255));" stroke-miterlimit="10" stroke="#000000" fill="none" d="M 190 210 L 210 210 M 110 195 L 130 195 M 110 225 L 130 225"></path><path style="stroke: light-dark(rgb(0, 0, 0), rgb(255, 255, 255));" stroke-miterlimit="10" stroke="#000000" fill="none" d="M 130 180 L 160 180 C 176.57 180 190 193.43 190 210 C 190 226.57 176.57 240 160 240 L 130 240 Z"></path></g></g><g data-cell-id="Y9nm8DiQlRWT1U7rumLC-2"><g><path style="stroke: light-dark(rgb(0, 0, 0), rgb(255, 255, 255));" stroke-miterlimit="10" stroke="#000000" fill="none" d="M 190 30 L 210 30 M 110 15 L 130 15 M 110 45 L 130 45"></path><path style="stroke: light-dark(rgb(0, 0, 0), rgb(255, 255, 255));" stroke-miterlimit="10" stroke="#000000" fill="none" d="M 130 0 L 160 0 C 176.57 0 190 13.43 190 30 C 190 46.57 176.57 60 160 60 L 130 60 Z"></path></g></g><g data-cell-id="Y9nm8DiQlRWT1U7rumLC-3"><g><path style="stroke: light-dark(rgb(0, 0, 0), rgb(255, 255, 255));" stroke-miterlimit="10" stroke="#000000" fill="none" d="M 40 195 L 110 195"></path></g></g><g data-cell-id="Y9nm8DiQlRWT1U7rumLC-4"><g><path style="stroke: light-dark(rgb(0, 0, 0), rgb(255, 255, 255));" transform="rotate(-90,80,130)" stroke-miterlimit="10" stroke="#000000" fill="none" d="M 30 130 L 50 130"></path><path style="stroke: light-dark(rgb(0, 0, 0), rgb(255, 255, 255));" transform="rotate(-90,80,130)" stroke-miterlimit="10" stroke="#000000" fill="none" d="M 114 130 L 130 130"></path><path style="stroke: light-dark(rgb(0, 0, 0), rgb(255, 255, 255));" transform="rotate(-90,80,130)" stroke-miterlimit="10" stroke="#000000" fill="none" d="M 107 130 L 47 160 L 47 100 Z"></path><ellipse style="stroke: light-dark(rgb(0, 0, 0), rgb(255, 255, 255));" transform="rotate(-90,80,130)" stroke="#000000" fill="none" ry="4" rx="4" cy="130" cx="111"></ellipse></g></g><g data-cell-id="Y9nm8DiQlRWT1U7rumLC-5"><g><path style="stroke: light-dark(rgb(0, 0, 0), rgb(255, 255, 255));" stroke-miterlimit="10" stroke="#000000" fill="none" d="M 80 200 L 80 180"></path></g></g><g data-cell-id="Y9nm8DiQlRWT1U7rumLC-6"><g><path style="stroke: light-dark(rgb(0, 0, 0), rgb(255, 255, 255));" stroke-miterlimit="10" stroke="#000000" fill="none" d="M 40 225 L 110 225"></path></g></g><g data-cell-id="Y9nm8DiQlRWT1U7rumLC-7"><g><path style="stroke: light-dark(rgb(0, 0, 0), rgb(255, 255, 255));" stroke-miterlimit="10" stroke="#000000" fill="none" d="M 80 45 L 110 45"></path></g></g><g data-cell-id="Y9nm8DiQlRWT1U7rumLC-8"><g><path style="stroke: light-dark(rgb(0, 0, 0), rgb(255, 255, 255));" stroke-miterlimit="10" stroke="#000000" fill="none" d="M 80 40 L 80 80"></path></g></g><g data-cell-id="Y9nm8DiQlRWT1U7rumLC-9"><g><path style="stroke: light-dark(rgb(0, 0, 0), rgb(255, 255, 255));" stroke-miterlimit="10" stroke="#000000" fill="none" d="M 60 15 L 110 15"></path></g></g><g data-cell-id="Y9nm8DiQlRWT1U7rumLC-10"><g><path style="stroke: light-dark(rgb(0, 0, 0), rgb(255, 255, 255));" stroke-miterlimit="10" stroke="#000000" fill="none" d="M 210 210 L 250 210"></path></g></g><g data-cell-id="Y9nm8DiQlRWT1U7rumLC-11"><g><path style="stroke: light-dark(rgb(0, 0, 0), rgb(255, 255, 255));" transform="rotate(90,260,290)" stroke-miterlimit="10" stroke="#000000" fill="none" d="M 290 290 L 310 290 M 210 275 L 233 275 M 210 305 L 233 305"></path><path style="stroke: light-dark(rgb(0, 0, 0), rgb(255, 255, 255));" transform="rotate(90,260,290)" stroke-miterlimit="10" stroke="#000000" fill="none" d="M 250 260 C 267.47 260.56 283.06 272.25 290 290 C 283.06 307.75 267.47 319.44 250 320 L 225 320 C 235.72 301.44 235.72 278.56 225 260 Z"></path></g></g><g data-cell-id="Y9nm8DiQlRWT1U7rumLC-12"><g><path style="stroke: light-dark(rgb(0, 0, 0), rgb(255, 255, 255));" stroke-miterlimit="10" stroke="#000000" fill="none" d="M 245 210 L 245 240"></path></g></g><g data-cell-id="Y9nm8DiQlRWT1U7rumLC-13"><g><path style="stroke: light-dark(rgb(0, 0, 0), rgb(255, 255, 255));" stroke-miterlimit="10" stroke="#000000" fill="none" d="M 275 240 L 275 30"></path></g></g><g data-cell-id="Y9nm8DiQlRWT1U7rumLC-14"><g><path style="stroke: light-dark(rgb(0, 0, 0), rgb(255, 255, 255));" stroke-miterlimit="10" stroke="#000000" fill="none" d="M 280 30 L 210 30"></path></g></g><g data-cell-id="Y9nm8DiQlRWT1U7rumLC-15"><g><rect stroke="none" fill="none" height="30" width="60" y="340" x="230"></rect></g><g><g transform="translate(-0.5 -0.5)"><switch><text text-anchor="middle" font-size="12px" font-family="&quot;Helvetica&quot;" fill="light-dark(#000000, #ffffff)" y="359" x="260">Y</text></switch></g></g></g><g data-cell-id="Y9nm8DiQlRWT1U7rumLC-16"><g><rect stroke="none" fill="none" height="30" width="60" y="180" x="0"></rect></g><g><g transform="translate(-0.5 -0.5)"><switch><text text-anchor="middle" font-size="12px" font-family="&quot;Helvetica&quot;" fill="light-dark(#000000, #ffffff)" y="199" x="30">S</text></switch></g></g></g><g data-cell-id="Y9nm8DiQlRWT1U7rumLC-17"><g><rect stroke="none" fill="none" height="30" width="60" y="0" x="0"></rect></g><g><g transform="translate(-0.5 -0.5)"><switch><text text-anchor="middle" font-size="12px" font-family="&quot;Helvetica&quot;" fill="light-dark(#000000, #ffffff)" y="19" x="30">D0</text></switch></g></g></g><g data-cell-id="Y9nm8DiQlRWT1U7rumLC-19"><g><rect stroke="none" fill="none" height="30" width="60" y="210" x="0"></rect></g><g><g transform="translate(-0.5 -0.5)"><switch><text text-anchor="middle" font-size="12px" font-family="&quot;Helvetica&quot;" fill="light-dark(#000000, #ffffff)" y="229" x="30">D1</text></switch></g></g></g></g></g></g><switch><g></g><a xlink:href="https://www.drawio.com/doc/faq/svg-export-text-problems" transform="translate(0,-5)"><text y="100%" x="50%" font-size="10px" text-anchor="middle">Text is not SVG - cannot display</text></a></switch></svg>