<svg viewBox="-0.5 -0.5 221 251" height="251px" width="221px" version="1.1" xmlns:xlink="http://www.w3.org/1999/xlink" style="background: transparent; background-color: transparent; color-scheme: light dark;" xmlns="http://www.w3.org/2000/svg"><defs></defs><g><g data-cell-id="0"><g data-cell-id="1"><g data-cell-id="WbWByEmwcu1BMpm6plHL-2"><g><rect style="stroke: light-dark(rgb(0, 0, 0), rgb(255, 255, 255));" transform="rotate(90,90,60)" stroke="#000000" fill="none" height="60" width="120" y="30" x="30"></rect></g></g><g data-cell-id="WbWByEmwcu1BMpm6plHL-3"><g><path style="stroke: light-dark(rgb(0, 0, 0), rgb(255, 255, 255));" stroke-miterlimit="10" stroke="#000000" fill="none" d="M 40 60 L 60 60"></path></g></g><g data-cell-id="WbWByEmwcu1BMpm6plHL-4"><g><path style="stroke: light-dark(rgb(0, 0, 0), rgb(255, 255, 255));" stroke-miterlimit="10" stroke="#000000" fill="none" d="M 40 90 L 60 90"></path></g></g><g data-cell-id="WbWByEmwcu1BMpm6plHL-5"><g><path style="stroke: light-dark(rgb(0, 0, 0), rgb(255, 255, 255));" stroke-miterlimit="10" stroke="#000000" fill="none" d="M 210 60 L 120 60"></path></g></g><g data-cell-id="WbWByEmwcu1BMpm6plHL-6"><g><path style="stroke: light-dark(rgb(0, 0, 0), rgb(255, 255, 255));" stroke-miterlimit="10" stroke="#000000" fill="none" d="M 210 90 L 120 90"></path></g></g><g data-cell-id="WbWByEmwcu1BMpm6plHL-7"><g><path style="stroke: light-dark(rgb(0, 0, 0), rgb(255, 255, 255));" stroke-miterlimit="10" stroke="#000000" fill="none" d="M 210 80 L 120 80.04"></path></g></g><g data-cell-id="WbWByEmwcu1BMpm6plHL-9"><g><path style="stroke: light-dark(rgb(0, 0, 0), rgb(255, 255, 255));" stroke-miterlimit="10" stroke="#000000" fill="none" d="M 210 70 L 120 69.96"></path></g></g><g data-cell-id="WbWByEmwcu1BMpm6plHL-10"><g><rect stroke="none" fill="none" height="30" width="60" y="45" x="0"></rect></g><g><g><switch><text text-anchor="middle" font-size="12px" font-family="Helvetica" fill="light-dark(#000000, #ffffff)" y="64" x="30">A1</text></switch></g></g></g><g data-cell-id="WbWByEmwcu1BMpm6plHL-11"><g><rect stroke="none" fill="none" height="30" width="60" y="75" x="0"></rect></g><g><g><switch><text text-anchor="middle" font-size="12px" font-family="Helvetica" fill="light-dark(#000000, #ffffff)" y="94" x="30">A0</text></switch></g></g></g><g data-cell-id="WbWByEmwcu1BMpm6plHL-17"><g><path style="stroke: light-dark(rgb(0, 0, 0), rgb(255, 255, 255));" transform="rotate(90,190,170)" stroke-miterlimit="10" stroke="#000000" fill="none" d="M 220 170 L 240 170 M 140 155 L 163 155 M 140 185 L 163 185"></path><path style="stroke: light-dark(rgb(0, 0, 0), rgb(255, 255, 255));" transform="rotate(90,190,170)" stroke-miterlimit="10" stroke="#000000" fill="none" d="M 180 140 C 197.47 140.56 213.06 152.25 220 170 C 213.06 187.75 197.47 199.44 180 200 L 155 200 C 165.72 181.44 165.72 158.56 155 140 Z"></path></g></g><g data-cell-id="WbWByEmwcu1BMpm6plHL-18"><g><path style="stroke: light-dark(rgb(0, 0, 0), rgb(255, 255, 255));" stroke-miterlimit="10" stroke="#000000" fill="none" d="M 175 90 L 175 120"></path></g></g><g data-cell-id="WbWByEmwcu1BMpm6plHL-19"><g><path style="stroke: light-dark(rgb(0, 0, 0), rgb(255, 255, 255));" stroke-miterlimit="10" stroke="#000000" fill="none" d="M 205 60 L 205 120"></path></g></g><g data-cell-id="WbWByEmwcu1BMpm6plHL-20"><g><rect stroke="none" fill="none" height="30" width="60" y="220" x="160"></rect></g><g><g><switch><text text-anchor="middle" font-size="12px" font-family="Helvetica" fill="light-dark(#000000, #ffffff)" y="239" x="190">Y</text></switch></g></g></g></g></g></g><switch><g></g><a xlink:href="https://www.drawio.com/doc/faq/svg-export-text-problems" transform="translate(0,-5)"><text y="100%" x="50%" font-size="10px" text-anchor="middle">Text is not SVG - cannot display</text></a></switch></svg>